Coordinates
version=1
nRows=14
nColumns=24
inDegrees=yes

Units are S.I. units (second, meters, Newtons, ...)
Angles are in degrees.

endheader
time	pelvis_tilt	pelvis_list	pelvis_rotation	pelvis_tx	pelvis_ty	pelvis_tz	hip_flexion_r	hip_adduction_r	hip_rotation_r	knee_angle_r	ankle_angle_r	subtalar_angle_r	mtp_angle_r	hip_flexion_l	hip_adduction_l	hip_rotation_l	knee_angle_l	ankle_angle_l	subtalar_angle_l	mtp_angle_l	lumbar_extension	lumbar_bending	lumbar_rotation
      1.32100000	      0.42856308	      5.06057139	     -0.23021938	      0.35887618	      1.00542957	      0.28493070	     17.95358982	     -4.63932654	      0.88718710	    -68.08355635	     -6.65986844	    -13.95213768	      3.00322155	      7.24987696	      9.94911449	     -0.27319657	     -9.09504198	      0.12334213	     -7.55262578	      4.25274359	     -0.61979749	     -3.02180230	      2.16488082
      1.32516667	      0.46733830	      4.95351154	     -0.13681493	      0.36377054	      1.00608271	      0.28470485	     18.46433189	     -4.50330632	      0.91951886	    -67.83220111	     -5.81434883	    -14.20657917	      2.93624289	      6.75854401	      9.86007167	     -0.10048884	     -8.86416933	      0.24609698	     -7.52500856	      4.23958325	     -0.70302537	     -2.89172300	      2.11329768
      1.32933333	      0.52025920	      4.84749491	     -0.04243389	      0.36865271	      1.00670632	      0.28448325	     18.94847402	     -4.37362189	      0.94208714	    -67.53195103	     -5.01485320	    -14.52433002	      2.85372003	      6.24395586	      9.77288169	      0.10358242	     -8.61184269	      0.33403506	     -7.54614496	      4.22082573	     -0.80776678	     -2.77414826	      2.01917205
      1.33350000	      0.57863539	      4.71365356	      0.07114567	      0.37357148	      1.00735850	      0.28424208	     19.38793187	     -4.21769856	      0.94092467	    -67.13986682	     -4.24979386	    -14.82346645	      2.78281391	      5.72272260	      9.65601194	      0.31561966	     -8.36261099	      0.41525496	     -7.58143331	      4.20329237	     -0.88900440	     -2.62409706	      1.92488470
      1.33766667	      0.65019341	      4.62929494	      0.16204144	      0.37845053	      1.00794641	      0.28401631	     19.82314679	     -4.11822329	      0.96228085	    -66.73155127	     -3.56508814	    -15.24869024	      2.55999978	      5.15689431	      9.60029412	      0.62621412	     -8.04163516	      0.43173281	     -7.81235139	      4.14083946	     -1.01958402	     -2.53883609	      1.70248056
      1.34183333	      0.71458644	      4.50419651	      0.27235676	      0.38331479	      1.00851424	      0.28378442	     20.23863396	     -3.97970822	      0.95735561	    -66.25205028	     -2.84214289	    -15.52379057	      2.34730890	      4.63076376	      9.49264629	      0.88737856	     -7.78454193	      0.49284738	     -7.92979843	      4.07844377	     -1.13830511	     -2.39351675	      1.58592000
      1.34600000	      0.75549694	      4.37778169	      0.38423053	      0.38817776	      1.00899952	      0.28355347	     20.66691942	     -3.84331656	      0.94794180	    -65.72498163	     -2.16987563	    -15.78948332	      2.14812439	      4.13820069	      9.38187889	      1.14467681	     -7.54145345	      0.56269523	     -8.04974467	      4.01752020	     -1.22392134	     -2.24384903	      1.46732916
      1.35016667	      0.79330141	      4.24599427	      0.51285732	      0.39303725	      1.00947314	      0.28329981	     21.07351083	     -3.71024173	      0.91794637	    -65.12751577	     -1.57503046	    -16.03455781	      1.69476108	      3.63194712	      9.26899750	      1.48102879	     -7.25763652	      0.51930715	     -8.30135250	      3.86870627	     -1.30304952	     -2.08943750	      1.29590197
      1.35433333	      0.83065636	      4.13114914	      0.61745647	      0.39788344	      1.00985768	      0.28310156	     21.48204872	     -3.58716264	      0.91519872	    -64.52234739	     -0.85272272	    -16.11344292	     -2.33712474	      3.16225173	      9.16403413	      1.71384330	     -7.05155722	      0.67190278	     -8.37463506	      2.57409323	     -1.38778621	     -1.96037523	      1.25413988
      1.35850000	      0.87673072	      4.00847975	      0.72578554	      0.40272746	      1.01023857	      0.28290568	     21.85753341	     -3.45874310	      0.90364819	    -63.84198343	     -0.27071131	    -16.37772659	     -2.35094032	      2.68606709	      9.04788857	      1.93935463	     -6.84312411	      0.77283973	     -8.46199628	      2.58669579	     -1.47865345	     -1.82325965	      1.12113114
      1.36266667	      0.90916179	      3.89044065	      0.83908733	      0.40757100	      1.01055974	      0.28270162	     22.23148364	     -3.34132643	      0.88726255	    -63.11454170	      0.26647466	    -16.59458095	     -2.37948956	      2.21848837	      8.93744307	      2.20820546	     -6.62008118	      0.83881132	     -8.62520842	      2.59152046	     -1.55599992	     -1.68747209	      0.98823535
      1.36683333	      0.91624121	      3.77288951	      0.95848277	      0.41239992	      1.01080082	      0.28250784	     22.61692800	     -3.22795713	      0.86553721	    -62.34006858	      0.79095989	    -16.73443604	     -2.39578540	      1.81007160	      8.82188720	      2.42432181	     -6.45816361	      0.94697898	     -8.71172722	      2.59139856	     -1.59810426	     -1.55270491	      0.92306974
      1.37100000	      0.99775195	      3.66913027	      1.05558609	      0.41726064	      1.01112509	      0.28233346	     22.90243028	     -3.12848408	      0.85205298	    -61.51282647	      1.24737057	    -16.93855221	     -2.44198014	      1.27234652	      8.72212318	      2.70543742	     -6.19716847	      1.01251517	     -8.92134950	      2.58040619	     -1.73497094	     -1.43416103	      0.76422256
      1.37516667	      1.03524859	      3.55900561	      1.16300556	      0.42210077	      1.01134198	      0.28215870	     23.21877108	     -3.02401803	      0.83502772	    -60.63949885	      1.68099625	    -17.08362483	     -2.49708551	      0.81049059	      8.61184360	      2.96772213	     -5.99082310	      1.09842087	     -9.09618481	      2.56362805	     -1.81772093	     -1.30782626	      0.65151357
